<svg width="50" height="50" viewBox="0 0 50 50" fill="none" xmlns="http://www.w3.org/2000/svg">
<path d="M40.9782 14.0435H36.5956L34.1761 10.3913C33.263 9.02175 31.6652 8.20001 30.0217 8.20001H19.9783C18.3348 8.20001 16.737 9.02175 15.8239 10.3913L13.4044 14.0435H9.02176C8.36176 14.0416 7.70789 14.1702 7.09777 14.4219C6.48764 14.6735 5.93329 15.0434 5.4666 15.5101C4.99991 15.9768 4.63008 16.5311 4.37839 17.1412C4.1267 17.7514 3.99811 18.4052 4.00002 19.0652V36.7782C3.99811 37.4382 4.1267 38.0921 4.37839 38.7022C4.63008 39.3124 4.99991 39.8667 5.4666 40.3334C5.93329 40.8001 6.48764 41.1699 7.09777 41.4216C7.70789 41.6733 8.36176 41.8019 9.02176 41.8H40.9782C41.6382 41.8019 42.2921 41.6733 42.9022 41.4216C43.5124 41.1699 44.0667 40.8001 44.5334 40.3334C45.0001 39.8667 45.3699 39.3124 45.6216 38.7022C45.8733 38.0921 46.0019 37.4382 46 36.7782V19.0652C46.0019 18.4052 45.8733 17.7514 45.6216 17.1412C45.3699 16.5311 45.0001 15.9768 44.5334 15.5101C44.0667 15.0434 43.5124 14.6735 42.9022 14.4219C42.2921 14.1702 41.6382 14.0416 40.9782 14.0435ZM25 37.6913C18.7457 37.6913 13.6783 32.6239 13.6783 26.3696C13.6783 20.1152 18.7457 15.0935 25 15.0935C31.2543 15.0935 36.3217 20.1609 36.3217 26.4152C36.3217 32.6239 31.2543 37.6913 25 37.6913ZM40.3391 21.1196H38.3304C37.5087 21.0739 36.8696 20.3891 36.9152 19.5674C36.9609 18.7913 37.5543 18.1978 38.3304 18.1522H40.1565C40.9782 18.1065 41.663 18.7457 41.7087 19.5674C41.7543 20.3891 41.1609 21.0739 40.3391 21.1196Z" fill="#EC00F9"/>
<path d="M24.9999 20.1155C21.5304 20.1155 18.7 22.9459 18.7 26.4155C18.7 29.885 21.5304 32.6698 24.9999 32.6698C28.4695 32.6698 31.2999 29.8394 31.2999 26.3698C31.2999 22.9003 28.4695 20.1155 24.9999 20.1155Z" fill="#EC00F9"/>
</svg>
