<svg width="50" height="50" viewBox="0 0 50 50" fill="none" xmlns="http://www.w3.org/2000/svg">
<path d="M38.6442 7.34783H37.4778C37.529 6.79904 37.4655 6.24561 37.2915 5.72263C37.1175 5.19965 36.8367 4.71853 36.467 4.30976C36.0973 3.90099 35.6466 3.5735 35.1437 3.34803C34.6407 3.12257 34.0964 3.00405 33.5453 3H11.5466C10.5037 3.00042 9.5037 3.41487 8.76629 4.15228C8.02889 4.88969 7.61443 5.88971 7.61401 6.93256V9.33928C7.61568 10.3817 8.03053 11.381 8.76767 12.1182C9.50481 12.8553 10.5041 13.2702 11.5466 13.2718H33.5453C34.0966 13.2672 34.6409 13.1482 35.1438 12.9224C35.6466 12.6965 36.0972 12.3687 36.4668 11.9597C36.8365 11.5508 37.1172 11.0695 37.2912 10.5464C37.4653 10.0233 37.5288 9.46978 37.4778 8.92086H38.6442C39.0931 8.92106 39.5235 9.09946 39.8408 9.41683C40.1582 9.7342 40.3366 10.1646 40.3368 10.6134V14.1488C40.3359 14.4675 40.2455 14.7795 40.0758 15.0493C39.9062 15.3191 39.6641 15.5358 39.3773 15.6746L24.966 22.5999C24.3081 22.9188 23.753 23.416 23.3636 24.0349C22.9743 24.6538 22.7665 25.3695 22.7638 26.1006V29.4889H22.0937C21.4882 29.4895 20.906 29.7223 20.467 30.1393C20.0281 30.5563 19.7658 31.1258 19.7342 31.7305L19.1757 42.4349C19.079 48.5099 28.0138 48.5335 27.9217 42.4349L27.3633 31.7305C27.3335 31.1266 27.0728 30.5572 26.6351 30.1401C26.1975 29.7229 25.6163 29.4898 25.0116 29.4889H24.3376V26.1006C24.3392 25.6656 24.4629 25.2398 24.6945 24.8717C24.9262 24.5035 25.2565 24.2077 25.6479 24.0179L40.0584 17.0911C40.6117 16.8233 41.0786 16.4053 41.406 15.885C41.7333 15.3646 41.9079 14.7628 41.9098 14.148V10.6134C41.909 9.7476 41.5647 8.91746 40.9524 8.30522C40.3402 7.69299 39.5101 7.34867 38.6442 7.34783ZM21.3072 42.4357C21.3072 41.8412 21.5433 41.271 21.9637 40.8507C22.3841 40.4303 22.9542 40.1941 23.5487 40.1941C24.1432 40.1941 24.7134 40.4303 25.1338 40.8507C25.5541 41.271 25.7903 41.8412 25.7903 42.4357C25.7903 43.0302 25.5541 43.6003 25.1338 44.0207C24.7134 44.4411 24.1432 44.6772 23.5487 44.6772C22.9542 44.6772 22.3841 44.4411 21.9637 44.0207C21.5433 43.6003 21.3072 43.0302 21.3072 42.4357Z" fill="#FFAF2A"/>
<path d="M23.5486 41.768C23.3713 41.768 23.2012 41.8385 23.0759 41.9638C22.9505 42.0892 22.8801 42.2592 22.8801 42.4366C22.8801 42.6139 22.9505 42.7839 23.0759 42.9093C23.2012 43.0347 23.3713 43.1051 23.5486 43.1051C23.7259 43.1051 23.8959 43.0347 24.0213 42.9093C24.1467 42.7839 24.2171 42.6139 24.2171 42.4366C24.2171 42.2592 24.1467 42.0892 24.0213 41.9638C23.8959 41.8385 23.7259 41.768 23.5486 41.768ZM21.2363 20.839V14.8457C19.0608 14.7891 12.8497 14.9653 10.6813 14.7671V24.6693C10.6813 25.3253 10.9419 25.9545 11.4058 26.4183C11.8697 26.8822 12.4988 27.1428 13.1549 27.1428C13.8109 27.1428 14.44 26.8822 14.9039 26.4183C15.3678 25.9545 15.6284 25.3253 15.6284 24.6693V20.5086C15.6284 20.4394 15.6421 20.3709 15.6685 20.307C15.695 20.243 15.7338 20.1849 15.7828 20.136C15.8317 20.0871 15.8898 20.0483 15.9537 20.0218C16.0177 19.9953 16.0862 19.9817 16.1554 19.9817C16.643 19.9935 16.7185 20.4433 16.6824 20.839C16.6824 21.4428 16.9222 22.022 17.3493 22.449C17.7763 22.876 18.3554 23.1159 18.9593 23.1159C19.5632 23.1159 20.1423 22.876 20.5694 22.449C20.9964 22.022 21.2363 21.4428 21.2363 20.839Z" fill="#FFAF2A"/>
</svg>
