<svg width="34" height="34" viewBox="0 0 34 34" fill="none" xmlns="http://www.w3.org/2000/svg">
<path d="M7.35023 4.88135C6.1207 5.07084 5.07107 6.1205 4.88158 7.35006C4.76932 8.09125 4.6609 9.10348 4.60142 10.4856C4.54241 11.8677 4.56544 12.8761 4.61677 13.6115C4.70264 14.832 5.70766 15.7977 6.98037 15.9042C7.74504 15.9666 8.79563 16.0102 10.2324 16.0064C11.6697 16.0025 12.7202 15.9517 13.4854 15.8831C14.7591 15.7694 15.7694 14.7595 15.8831 13.4854C15.9521 12.7197 16.002 11.6696 16.0063 10.2323C16.0107 8.79549 15.9665 7.74536 15.9042 6.98018C15.7977 5.70697 14.8325 4.70193 13.6116 4.61653C12.8762 4.5652 11.8678 4.54266 10.4857 4.60118C9.10362 4.66067 8.09092 4.76909 7.35023 4.88135Z" fill="#FF55A4"/>
<path d="M7.35023 30.2519C6.1207 30.0624 5.07107 29.0127 4.88158 27.7832C4.76932 27.042 4.6609 26.0298 4.60142 24.6476C4.54241 23.2655 4.56544 22.2571 4.61677 21.5217C4.70264 20.3013 5.70766 19.3356 6.98037 19.2291C7.74504 19.1667 8.79563 19.123 10.2324 19.1269C11.6697 19.1307 12.7202 19.1816 13.4854 19.2502C14.7591 19.3639 15.7694 20.3737 15.8831 21.6479C15.9521 22.4135 16.002 23.4637 16.0063 24.9009C16.0107 26.3377 15.9665 27.3879 15.9042 28.1531C15.7977 29.4263 14.8325 30.4313 13.6116 30.5167C12.8762 30.568 11.8678 30.5906 10.4857 30.5321C9.10362 30.4726 8.09092 30.3642 7.35023 30.2519Z" fill="#FF55A4"/>
<path d="M27.7828 4.88135C29.0123 5.07084 30.0619 6.1205 30.2514 7.35006C30.3637 8.09125 30.4721 9.10348 30.5316 10.4856C30.5906 11.8677 30.5676 12.8761 30.5162 13.6115C30.4304 14.832 29.4253 15.7977 28.1526 15.9042C27.388 15.9666 26.3374 16.0102 24.9006 16.0064C23.4634 16.0025 22.4128 15.9517 21.6476 15.8831C20.3739 15.7694 19.3636 14.7595 19.2499 13.4854C19.1809 12.7197 19.131 11.6696 19.1267 10.2323C19.1223 8.79549 19.1665 7.74536 19.2288 6.98018C19.3353 5.70697 20.3005 4.70193 21.5214 4.61653C22.2568 4.5652 23.2652 4.54266 24.6473 4.60118C26.0294 4.66067 27.0421 4.76909 27.7828 4.88135Z" fill="#FF55A4"/>
<path d="M27.7828 30.2519C29.0123 30.0624 30.0619 29.0127 30.2514 27.7832C30.3637 27.042 30.4721 26.0298 30.5316 24.6476C30.5906 23.2655 30.5676 22.2571 30.5162 21.5217C30.4304 20.3013 29.4253 19.3356 28.1526 19.2291C27.388 19.1667 26.3374 19.123 24.9006 19.1269C23.4634 19.1307 22.4128 19.1816 21.6476 19.2502C20.3739 19.3639 19.3636 20.3737 19.2499 21.6479C19.1809 22.4135 19.131 23.4637 19.1267 24.9009C19.1223 26.3377 19.1665 27.3879 19.2288 28.1531C19.3353 29.4263 20.3005 30.4313 21.5214 30.5167C22.2568 30.568 23.2652 30.5906 24.6473 30.5321C26.0294 30.4726 27.0421 30.3642 27.7828 30.2519Z" fill="#FF55A4"/>
</svg>
