<svg width="24" height="24" viewBox="0 0 24 24" fill="none" xmlns="http://www.w3.org/2000/svg">
<g clip-path="url(#clip0_6728_2313)">
<path d="M14.3937 5.40377L15.7428 4.08846C15.8389 3.99482 15.9068 3.87614 15.939 3.74586C15.9711 3.61558 15.9662 3.4789 15.9247 3.3513C15.8832 3.22369 15.8068 3.11025 15.7041 3.02383C15.6014 2.9374 15.4767 2.88144 15.3438 2.86227L13.4787 2.5913L12.6449 0.901519C12.5787 0.789469 12.4844 0.696617 12.3713 0.632116C12.2583 0.567614 12.1304 0.533691 12.0002 0.533691C11.8701 0.533691 11.7421 0.567614 11.6291 0.632116C11.516 0.696617 11.4217 0.789469 11.3555 0.901519L10.5217 2.5913L8.65659 2.86227C8.52384 2.88155 8.39913 2.93759 8.29657 3.02406C8.19401 3.11053 8.1177 3.22398 8.07627 3.35157C8.03484 3.47915 8.02994 3.61579 8.06213 3.74602C8.09431 3.87624 8.1623 3.99486 8.2584 4.08846L9.6075 5.40377L9.28909 7.26174C9.26654 7.39382 9.28136 7.52958 9.33187 7.65369C9.38239 7.77779 9.4666 7.88531 9.57498 7.96409C9.68337 8.04288 9.81162 8.0898 9.94526 8.09955C10.0789 8.10931 10.2126 8.08151 10.3313 8.0193L12.0002 7.14243L13.6684 8.0193C13.7871 8.08171 13.9209 8.10967 14.0547 8.10001C14.1884 8.09035 14.3168 8.04346 14.4253 7.96465C14.5338 7.88583 14.6181 7.77823 14.6687 7.65402C14.7192 7.5298 14.734 7.39392 14.7113 7.26174L14.3937 5.40377ZM23.465 5.47637C23.4235 5.34892 23.3472 5.23562 23.2447 5.14925C23.1422 5.06288 23.0176 5.0069 22.885 4.98762L21.0198 4.71593L20.1853 3.02615C20.1193 2.91392 20.025 2.82089 19.9119 2.75625C19.7989 2.69162 19.6709 2.65762 19.5406 2.65762C19.4104 2.65762 19.2824 2.69162 19.1693 2.75625C19.0562 2.82089 18.962 2.91392 18.8959 3.02615L18.0622 4.71593L16.197 4.9869C16.0642 5.00617 15.9395 5.06222 15.837 5.14869C15.7344 5.23516 15.6581 5.34861 15.6167 5.47619C15.5753 5.60378 15.5704 5.74042 15.6025 5.87064C15.6347 6.00087 15.7027 6.11949 15.7988 6.21308L17.1486 7.5284L16.8295 9.38637C16.8067 9.5186 16.8214 9.65458 16.8718 9.77891C16.9223 9.90324 17.0066 10.011 17.1151 10.0899C17.2236 10.1688 17.3521 10.2157 17.4859 10.2254C17.6198 10.2351 17.7536 10.2071 17.8724 10.1446L19.5399 9.26777L21.2088 10.1446C21.3276 10.2071 21.4615 10.2351 21.5953 10.2254C21.7292 10.2157 21.8576 10.1688 21.9661 10.0899C22.0747 10.011 22.1589 9.90324 22.2094 9.77891C22.2599 9.65458 22.2746 9.5186 22.2518 9.38637L21.9333 7.5284L23.2824 6.21308C23.3786 6.11955 23.4466 6.00098 23.4789 5.87079C23.5112 5.74059 23.5063 5.60397 23.465 5.47637ZM7.80271 4.9869L5.93827 4.71593L5.10452 3.02615C5.04521 2.90578 4.95338 2.80442 4.83944 2.73354C4.7255 2.66267 4.59399 2.6251 4.4598 2.6251C4.32562 2.6251 4.19411 2.66267 4.08017 2.73354C3.96623 2.80442 3.8744 2.90578 3.81509 3.02615L2.98133 4.71593L1.11546 4.9869C0.982706 5.00617 0.857997 5.06222 0.755441 5.14869C0.652884 5.23516 0.576573 5.34861 0.535141 5.47619C0.493709 5.60378 0.488809 5.74042 0.520996 5.87064C0.553183 6.00087 0.621172 6.11949 0.717271 6.21308L2.06708 7.5284L1.74868 9.38637C1.72613 9.51845 1.74095 9.65421 1.79146 9.77831C1.84198 9.90242 1.92618 10.0099 2.03457 10.0887C2.14296 10.1675 2.27121 10.2144 2.40484 10.2242C2.53848 10.2339 2.67219 10.2061 2.79087 10.1439L4.4598 9.26706L6.12731 10.1439C6.24603 10.2065 6.37991 10.2347 6.51378 10.2251C6.64766 10.2155 6.77618 10.1687 6.8848 10.0898C6.99342 10.011 7.07779 9.9033 7.12836 9.77897C7.17893 9.65465 7.19368 9.51864 7.17093 9.38637L6.85253 7.5284L8.20234 6.21308C8.29824 6.11941 8.36603 6.00079 8.39806 5.87062C8.43009 5.74044 8.42507 5.6039 8.38358 5.47643C8.34208 5.34896 8.26577 5.23563 8.16325 5.14925C8.06073 5.06287 7.9361 5.00688 7.80343 4.98762L7.80271 4.9869ZM19.1877 11.2817H4.81271C4.24101 11.2823 3.69289 11.5096 3.28864 11.9139C2.88439 12.3181 2.65703 12.8663 2.65646 13.438V19.188C2.65703 19.7597 2.88439 20.3078 3.28864 20.712C3.69289 21.1163 4.24101 21.3436 4.81271 21.3442H9.5464L11.4921 23.2899C11.6268 23.4246 11.8096 23.5003 12.0002 23.5003C12.1908 23.5003 12.3736 23.4246 12.5084 23.2899L14.454 21.3442H19.1877C19.7594 21.3436 20.3075 21.1163 20.7118 20.712C21.116 20.3078 21.3434 19.7597 21.344 19.188V13.438C21.3434 12.8663 21.116 12.3181 20.7118 11.9139C20.3075 11.5096 19.7594 11.2823 19.1877 11.2817ZM17.7502 18.4692H6.25021C6.05959 18.4692 5.87677 18.3935 5.74198 18.2587C5.60719 18.1239 5.53146 17.9411 5.53146 17.7505C5.53146 17.5598 5.60719 17.377 5.74198 17.2422C5.87677 17.1074 6.05959 17.0317 6.25021 17.0317H17.7502C17.9408 17.0317 18.1237 17.1074 18.2585 17.2422C18.3932 17.377 18.469 17.5598 18.469 17.7505C18.469 17.9411 18.3932 18.1239 18.2585 18.2587C18.1237 18.3935 17.9408 18.4692 17.7502 18.4692ZM17.7502 15.5942H6.25021C6.05959 15.5942 5.87677 15.5185 5.74198 15.3837C5.60719 15.2489 5.53146 15.0661 5.53146 14.8755C5.53146 14.6848 5.60719 14.502 5.74198 14.3672C5.87677 14.2324 6.05959 14.1567 6.25021 14.1567H17.7502C17.9408 14.1567 18.1237 14.2324 18.2585 14.3672C18.3932 14.502 18.469 14.6848 18.469 14.8755C18.469 15.0661 18.3932 15.2489 18.2585 15.3837C18.1237 15.5185 17.9408 15.5942 17.7502 15.5942Z" fill="url(#paint0_linear_6728_2313)"/>
</g>
<defs>
<linearGradient id="paint0_linear_6728_2313" x1="0.5" y1="0.533691" x2="23.4666" y2="23.5337" gradientUnits="userSpaceOnUse">
<stop stop-color="#FDA769"/>
<stop offset="0.769231" stop-color="#FC5B7D"/>
</linearGradient>
<clipPath id="clip0_6728_2313">
<rect width="24" height="24" fill="white"/>
</clipPath>
</defs>
</svg>
