<svg width="24" height="24" viewBox="0 0 24 24" fill="none" xmlns="http://www.w3.org/2000/svg">
<path d="M17 11.25C14.105 11.25 11.75 13.605 11.75 16.5C11.75 19.395 14.105 21.75 17 21.75C19.895 21.75 22.25 19.395 22.25 16.5C22.25 13.605 19.895 11.25 17 11.25ZM17 19.375C16.8011 19.375 16.6103 19.296 16.4697 19.1553C16.329 19.0147 16.25 18.8239 16.25 18.625C16.25 18.4261 16.329 18.2353 16.4697 18.0947C16.6103 17.954 16.8011 17.875 17 17.875C17.1989 17.875 17.3897 17.954 17.5303 18.0947C17.671 18.2353 17.75 18.4261 17.75 18.625C17.75 18.8239 17.671 19.0147 17.5303 19.1553C17.3897 19.296 17.1989 19.375 17 19.375ZM17.75 16.625C17.75 16.8239 17.671 17.0147 17.5303 17.1553C17.3897 17.296 17.1989 17.375 17 17.375C16.8011 17.375 16.6103 17.296 16.4697 17.1553C16.329 17.0147 16.25 16.8239 16.25 16.625V14.625C16.25 14.4261 16.329 14.2353 16.4697 14.0947C16.6103 13.954 16.8011 13.875 17 13.875C17.1989 13.875 17.3897 13.954 17.5303 14.0947C17.671 14.2353 17.75 14.4261 17.75 14.625V16.625ZM16.75 9.76V5C16.75 3.48 15.52 2.25 14 2.25H5C3.48 2.25 2.25 3.48 2.25 5V18C2.25 19.52 3.48 20.75 5 20.75H11.76C10.7832 19.549 10.2499 18.0481 10.25 16.5C10.25 12.86 13.14 9.89 16.75 9.76ZM6 6.25H13C13.41 6.25 13.75 6.59 13.75 7C13.75 7.41 13.41 7.75 13 7.75H6C5.59 7.75 5.25 7.41 5.25 7C5.25 6.59 5.59 6.25 6 6.25ZM6 9.25H13C13.41 9.25 13.75 9.59 13.75 10C13.75 10.41 13.41 10.75 13 10.75H6C5.59 10.75 5.25 10.41 5.25 10C5.25 9.59 5.59 9.25 6 9.25ZM9 13.75H6C5.59 13.75 5.25 13.41 5.25 13C5.25 12.59 5.59 12.25 6 12.25H9C9.41 12.25 9.75 12.59 9.75 13C9.75 13.41 9.41 13.75 9 13.75Z" fill="black"/>
<path d="M17 11.25C14.105 11.25 11.75 13.605 11.75 16.5C11.75 19.395 14.105 21.75 17 21.75C19.895 21.75 22.25 19.395 22.25 16.5C22.25 13.605 19.895 11.25 17 11.25ZM17 19.375C16.8011 19.375 16.6103 19.296 16.4697 19.1553C16.329 19.0147 16.25 18.8239 16.25 18.625C16.25 18.4261 16.329 18.2353 16.4697 18.0947C16.6103 17.954 16.8011 17.875 17 17.875C17.1989 17.875 17.3897 17.954 17.5303 18.0947C17.671 18.2353 17.75 18.4261 17.75 18.625C17.75 18.8239 17.671 19.0147 17.5303 19.1553C17.3897 19.296 17.1989 19.375 17 19.375ZM17.75 16.625C17.75 16.8239 17.671 17.0147 17.5303 17.1553C17.3897 17.296 17.1989 17.375 17 17.375C16.8011 17.375 16.6103 17.296 16.4697 17.1553C16.329 17.0147 16.25 16.8239 16.25 16.625V14.625C16.25 14.4261 16.329 14.2353 16.4697 14.0947C16.6103 13.954 16.8011 13.875 17 13.875C17.1989 13.875 17.3897 13.954 17.5303 14.0947C17.671 14.2353 17.75 14.4261 17.75 14.625V16.625ZM16.75 9.76V5C16.75 3.48 15.52 2.25 14 2.25H5C3.48 2.25 2.25 3.48 2.25 5V18C2.25 19.52 3.48 20.75 5 20.75H11.76C10.7832 19.549 10.2499 18.0481 10.25 16.5C10.25 12.86 13.14 9.89 16.75 9.76ZM6 6.25H13C13.41 6.25 13.75 6.59 13.75 7C13.75 7.41 13.41 7.75 13 7.75H6C5.59 7.75 5.25 7.41 5.25 7C5.25 6.59 5.59 6.25 6 6.25ZM6 9.25H13C13.41 9.25 13.75 9.59 13.75 10C13.75 10.41 13.41 10.75 13 10.75H6C5.59 10.75 5.25 10.41 5.25 10C5.25 9.59 5.59 9.25 6 9.25ZM9 13.75H6C5.59 13.75 5.25 13.41 5.25 13C5.25 12.59 5.59 12.25 6 12.25H9C9.41 12.25 9.75 12.59 9.75 13C9.75 13.41 9.41 13.75 9 13.75Z" fill="url(#paint0_linear_3835_620)"/>
<defs>
<linearGradient id="paint0_linear_3835_620" x1="2.25" y1="2.25" x2="21.7438" y2="22.2436" gradientUnits="userSpaceOnUse">
<stop stop-color="#FF7BB8"/>
<stop offset="0.822115" stop-color="#FF2F8F"/>
</linearGradient>
</defs>
</svg>
